<?xml version="1.0" encoding="utf-8"?>
<!-- Generator: Adobe Illustrator 24.1.2, SVG Export Plug-In . SVG Version: 6.00 Build 0)  -->
<svg version="1.1" id="Слой_1" xmlns="http://www.w3.org/2000/svg" xmlns:xlink="http://www.w3.org/1999/xlink" x="0px" y="0px"
	 viewBox="0 0 2898 1819" style="enable-background:new 0 0 2898 1819;" xml:space="preserve">
<style type="text/css">
	.st0{clip-path:url(#SVGID_2_);}
	.st1{fill:#FFFFFF;}
	.st2{clip-path:url(#SVGID_4_);}
	.st3{fill:none;stroke:#D9D9D9;stroke-width:3.4375;stroke-linejoin:round;stroke-miterlimit:10;}
	.st4{clip-path:url(#SVGID_6_);}
	.st5{clip-path:url(#SVGID_8_);}
	.st6{fill:none;stroke:#BFBFBF;stroke-width:3.4375;stroke-linejoin:round;stroke-miterlimit:10;}
	.st7{clip-path:url(#SVGID_10_);}
	.st8{clip-path:url(#SVGID_12_);}
	.st9{fill:none;stroke:#94B6D2;stroke-width:6.875;stroke-linecap:round;stroke-linejoin:round;stroke-miterlimit:10;}
	.st10{clip-path:url(#SVGID_14_);}
	.st11{fill:#94B6D2;stroke:#94B6D2;stroke-width:3.4375;stroke-linejoin:round;stroke-miterlimit:10;}
	.st12{clip-path:url(#SVGID_16_);}
	.st13{fill:#595959;}
	.st14{font-family:'ArialMT';}
	.st15{font-size:36.8565px;}
	.st16{clip-path:url(#SVGID_18_);}
	.st17{clip-path:url(#SVGID_20_);}
	.st18{clip-path:url(#SVGID_22_);}
	.st19{clip-path:url(#SVGID_24_);}
	.st20{clip-path:url(#SVGID_26_);}
	.st21{clip-path:url(#SVGID_28_);}
	.st22{clip-path:url(#SVGID_30_);}
	.st23{clip-path:url(#SVGID_32_);}
	.st24{clip-path:url(#SVGID_34_);}
	.st25{clip-path:url(#SVGID_36_);}
	.st26{clip-path:url(#SVGID_38_);}
	.st27{clip-path:url(#SVGID_40_);}
	.st28{clip-path:url(#SVGID_42_);}
	.st29{clip-path:url(#SVGID_44_);}
	.st30{clip-path:url(#SVGID_46_);}
	.st31{font-family:'STIXTwoMath';}
	.st32{font-size:72px;}
	.st33{font-family:'STIXTwoText-Bold';}
	.st34{font-family:'MyriadPro-Regular';}
	.st35{font-size:12px;}
	.st36{font-size:60px;}
</style>
<g>
	<defs>
		<rect id="SVGID_1_" x="115.8" y="91.9" width="2605.1" height="1635.2"/>
	</defs>
	<clipPath id="SVGID_2_">
		<use xlink:href="#SVGID_1_"  style="overflow:visible;"/>
	</clipPath>
	<g transform="translate(-2177 -657)" class="st0">
		<rect x="2293.7" y="749.8" class="st1" width="2602.4" height="1632.5"/>
		<g>
			<defs>
				<rect id="SVGID_3_" x="2293.7" y="749.8" width="2602.4" height="1631.6"/>
			</defs>
			<clipPath id="SVGID_4_">
				<use xlink:href="#SVGID_3_"  style="overflow:visible;"/>
			</clipPath>
			<g class="st2">
				<path class="st3" d="M2509.9,2071.8h2289.6 M2509.9,1835.3h2289.6 M2509.9,1599.8h2289.6 M2509.9,1364.3h2289.6 M2509.9,1127.9
					h2289.6 M2509.9,892.3h2289.6"/>
			</g>
		</g>
		<g>
			<defs>
				<rect id="SVGID_5_" x="2293.7" y="749.8" width="2602.4" height="1631.6"/>
			</defs>
			<clipPath id="SVGID_6_">
				<use xlink:href="#SVGID_5_"  style="overflow:visible;"/>
			</clipPath>
			<g class="st4">
				<path class="st3" d="M2795.8,892.3v1414.9 M3081.7,892.3v1414.9 M3368.5,892.3v1414.9 M3654.4,892.3v1414.9 M3940.2,892.3
					v1414.9 M4227,892.3v1414.9 M4512.9,892.3v1414.9 M4799.5,892.3v1414.9"/>
			</g>
		</g>
		<g>
			<defs>
				<rect id="SVGID_7_" x="2293.7" y="749.8" width="2602.4" height="1631.6"/>
			</defs>
			<clipPath id="SVGID_8_">
				<use xlink:href="#SVGID_7_"  style="overflow:visible;"/>
			</clipPath>
			<g class="st5">
				<path class="st6" d="M2509.9,2307.2l0-1414.9"/>
			</g>
		</g>
		<g>
			<defs>
				<rect id="SVGID_9_" x="2293.7" y="749.8" width="2602.4" height="1631.6"/>
			</defs>
			<clipPath id="SVGID_10_">
				<use xlink:href="#SVGID_9_"  style="overflow:visible;"/>
			</clipPath>
			<g class="st7">
				<path class="st6" d="M2509.9,2307.2h2289.6"/>
			</g>
		</g>
		<g>
			<defs>
				<rect id="SVGID_11_" x="2509.4" y="891.8" width="2292.3" height="1417.6"/>
			</defs>
			<clipPath id="SVGID_12_">
				<use xlink:href="#SVGID_11_"  style="overflow:visible;"/>
			</clipPath>
			<g class="st8">
				<path class="st9" d="M3230,1144.9l160-143.9h794.7v226.6h197.8l91.6-153.7v542H2594.4l541.3-388.3L3230,1144.9z"/>
			</g>
		</g>
		<g>
			<defs>
				<rect id="SVGID_13_" x="2293.7" y="749.8" width="2602.4" height="1631.6"/>
			</defs>
			<clipPath id="SVGID_14_">
				<use xlink:href="#SVGID_13_"  style="overflow:visible;"/>
			</clipPath>
			<g class="st10">
				<path class="st11" d="M3240,1145c0,5.5-4.4,9.9-9.9,9.9c-5.5,0-9.9-4.4-9.9-9.9c0-5.5,4.4-9.9,9.9-9.9
					C3235.6,1135.1,3240,1139.5,3240,1145z"/>
				<path class="st11" d="M3400,1001.2c0,5.5-4.4,9.9-9.9,9.9c-5.5,0-9.9-4.4-9.9-9.9c0-5.5,4.4-9.9,9.9-9.9
					C3395.6,991.3,3400,995.7,3400,1001.2z"/>
				<path class="st11" d="M4194.7,1001.2c0,5.5-4.4,9.9-9.9,9.9c-5.5,0-9.9-4.4-9.9-9.9c0-5.5,4.4-9.9,9.9-9.9
					C4190.2,991.3,4194.7,995.7,4194.7,1001.2z"/>
				<path class="st11" d="M4194.7,1227.7c0,5.5-4.4,9.9-9.9,9.9c-5.5,0-9.9-4.4-9.9-9.9c0-5.5,4.4-9.9,9.9-9.9
					C4190.2,1217.8,4194.7,1222.2,4194.7,1227.7z"/>
				<path class="st11" d="M4392.4,1227.7c0,5.5-4.4,9.9-9.9,9.9c-5.5,0-9.9-4.4-9.9-9.9c0-5.5,4.4-9.9,9.9-9.9
					C4388,1217.8,4392.4,1222.2,4392.4,1227.7z"/>
				<path class="st11" d="M4484.1,1074c0,5.5-4.4,9.9-9.9,9.9c-5.5,0-9.9-4.4-9.9-9.9c0-5.5,4.4-9.9,9.9-9.9
					C4479.7,1064.1,4484.1,1068.5,4484.1,1074z"/>
				<path class="st11" d="M4484.1,1616c0,5.5-4.4,9.9-9.9,9.9c-5.5,0-9.9-4.4-9.9-9.9c0-5.5,4.4-9.9,9.9-9.9
					C4479.7,1606.1,4484.1,1610.6,4484.1,1616z"/>
				<path class="st11" d="M2604.5,1616c0,5.5-4.4,9.9-9.9,9.9c-5.5,0-9.9-4.4-9.9-9.9c0-5.5,4.4-9.9,9.9-9.9
					C2600,1606.1,2604.5,1610.6,2604.5,1616z"/>
				<path class="st11" d="M2604.5,1616c0,5.5-4.4,9.9-9.9,9.9c-5.5,0-9.9-4.4-9.9-9.9c0-5.5,4.4-9.9,9.9-9.9
					C2600,1606.1,2604.5,1610.6,2604.5,1616z"/>
				<path class="st11" d="M3145.6,1227.7c0,5.5-4.4,9.9-9.9,9.9c-5.5,0-9.9-4.4-9.9-9.9c0-5.5,4.4-9.9,9.9-9.9
					C3141.2,1217.8,3145.6,1222.2,3145.6,1227.7z"/>
			</g>
		</g>
		<g>
			<defs>
				<rect id="SVGID_15_" x="2293.7" y="749.8" width="2602.4" height="1631.6"/>
			</defs>
			<clipPath id="SVGID_16_">
				<use xlink:href="#SVGID_15_"  style="overflow:visible;"/>
			</clipPath>
			<g class="st12">
				<text transform="matrix(1 0 0 1 2456.5952 2317.5637)" class="st13 st14 st15">0</text>
			</g>
		</g>
		<g>
			<defs>
				<rect id="SVGID_17_" x="2293.7" y="749.8" width="2602.4" height="1631.6"/>
			</defs>
			<clipPath id="SVGID_18_">
				<use xlink:href="#SVGID_17_"  style="overflow:visible;"/>
			</clipPath>
			<g class="st16">
				<text transform="matrix(1 0 0 1 2419.0195 2082.0422)" class="st13 st14 st15">100</text>
			</g>
		</g>
		<g>
			<defs>
				<rect id="SVGID_19_" x="2293.7" y="749.8" width="2602.4" height="1631.6"/>
			</defs>
			<clipPath id="SVGID_20_">
				<use xlink:href="#SVGID_19_"  style="overflow:visible;"/>
			</clipPath>
			<g class="st17">
				<text transform="matrix(1 0 0 1 2419.0195 1845.6202)" class="st13 st14 st15">200</text>
			</g>
		</g>
		<g>
			<defs>
				<rect id="SVGID_21_" x="2293.7" y="749.8" width="2602.4" height="1631.6"/>
			</defs>
			<clipPath id="SVGID_22_">
				<use xlink:href="#SVGID_21_"  style="overflow:visible;"/>
			</clipPath>
			<g class="st18">
				<text transform="matrix(1 0 0 1 2419.0195 1610.0978)" class="st13 st14 st15">300</text>
			</g>
		</g>
		<g>
			<defs>
				<rect id="SVGID_23_" x="2293.7" y="749.8" width="2602.4" height="1631.6"/>
			</defs>
			<clipPath id="SVGID_24_">
				<use xlink:href="#SVGID_23_"  style="overflow:visible;"/>
			</clipPath>
			<g class="st19">
				<text transform="matrix(1 0 0 1 2419.0195 1374.5773)" class="st13 st14 st15">400</text>
			</g>
		</g>
		<g>
			<defs>
				<rect id="SVGID_25_" x="2293.7" y="749.8" width="2602.4" height="1631.6"/>
			</defs>
			<clipPath id="SVGID_26_">
				<use xlink:href="#SVGID_25_"  style="overflow:visible;"/>
			</clipPath>
			<g class="st20">
				<text transform="matrix(1 0 0 1 2419.0195 1139.0548)" class="st13 st14 st15">500</text>
			</g>
		</g>
		<g>
			<defs>
				<rect id="SVGID_27_" x="2293.7" y="749.8" width="2602.4" height="1631.6"/>
			</defs>
			<clipPath id="SVGID_28_">
				<use xlink:href="#SVGID_27_"  style="overflow:visible;"/>
			</clipPath>
			<g class="st21">
				<text transform="matrix(1 0 0 1 2419.0195 902.634)" class="st13 st14 st15">600</text>
			</g>
		</g>
		<g>
			<defs>
				<rect id="SVGID_29_" x="2293.7" y="749.8" width="2602.4" height="1631.6"/>
			</defs>
			<clipPath id="SVGID_30_">
				<use xlink:href="#SVGID_29_"  style="overflow:visible;"/>
			</clipPath>
			<g class="st22">
				<text transform="matrix(1 0 0 1 2500.3823 2366.1057)" class="st13 st14 st15">0</text>
			</g>
		</g>
		<g>
			<defs>
				<rect id="SVGID_31_" x="2293.7" y="749.8" width="2602.4" height="1631.6"/>
			</defs>
			<clipPath id="SVGID_32_">
				<use xlink:href="#SVGID_31_"  style="overflow:visible;"/>
			</clipPath>
			<g class="st23">
				<text transform="matrix(1 0 0 1 2758.3779 2366.1057)" class="st13 st14 st15">1000</text>
			</g>
		</g>
		<g>
			<defs>
				<rect id="SVGID_33_" x="2293.7" y="749.8" width="2602.4" height="1631.6"/>
			</defs>
			<clipPath id="SVGID_34_">
				<use xlink:href="#SVGID_33_"  style="overflow:visible;"/>
			</clipPath>
			<g class="st24">
				<text transform="matrix(1 0 0 1 3044.5552 2366.1057)" class="st13 st14 st15">2000</text>
			</g>
		</g>
		<g>
			<defs>
				<rect id="SVGID_35_" x="2293.7" y="749.8" width="2602.4" height="1631.6"/>
			</defs>
			<clipPath id="SVGID_36_">
				<use xlink:href="#SVGID_35_"  style="overflow:visible;"/>
			</clipPath>
			<g class="st25">
				<text transform="matrix(1 0 0 1 3330.7329 2366.1057)" class="st13 st14 st15">3000</text>
			</g>
		</g>
		<g>
			<defs>
				<rect id="SVGID_37_" x="2293.7" y="749.8" width="2602.4" height="1631.6"/>
			</defs>
			<clipPath id="SVGID_38_">
				<use xlink:href="#SVGID_37_"  style="overflow:visible;"/>
			</clipPath>
			<g class="st26">
				<text transform="matrix(1 0 0 1 3616.9092 2366.1057)" class="st13 st14 st15">4000</text>
			</g>
		</g>
		<g>
			<defs>
				<rect id="SVGID_39_" x="2293.7" y="749.8" width="2602.4" height="1631.6"/>
			</defs>
			<clipPath id="SVGID_40_">
				<use xlink:href="#SVGID_39_"  style="overflow:visible;"/>
			</clipPath>
			<g class="st27">
				<text transform="matrix(1 0 0 1 3903.0859 2366.1057)" class="st13 st14 st15">5000</text>
			</g>
		</g>
		<g>
			<defs>
				<rect id="SVGID_41_" x="2293.7" y="749.8" width="2602.4" height="1631.6"/>
			</defs>
			<clipPath id="SVGID_42_">
				<use xlink:href="#SVGID_41_"  style="overflow:visible;"/>
			</clipPath>
			<g class="st28">
				<text transform="matrix(1 0 0 1 4189.2637 2366.1057)" class="st13 st14 st15">6000</text>
			</g>
		</g>
		<g>
			<defs>
				<rect id="SVGID_43_" x="2293.7" y="749.8" width="2602.4" height="1631.6"/>
			</defs>
			<clipPath id="SVGID_44_">
				<use xlink:href="#SVGID_43_"  style="overflow:visible;"/>
			</clipPath>
			<g class="st29">
				<text transform="matrix(1 0 0 1 4475.4414 2366.1057)" class="st13 st14 st15">7000</text>
			</g>
		</g>
		<g>
			<defs>
				<rect id="SVGID_45_" x="2293.7" y="749.8" width="2602.4" height="1631.6"/>
			</defs>
			<clipPath id="SVGID_46_">
				<use xlink:href="#SVGID_45_"  style="overflow:visible;"/>
			</clipPath>
			<g class="st30">
				<text transform="matrix(1 0 0 1 4761.6094 2366.1057)" class="st13 st14 st15">8000</text>
			</g>
		</g>
		<g>
			<defs>
				<rect id="SVGID_47_" x="2293.7" y="749.8" width="2602.4" height="1631.6"/>
			</defs>
			<clipPath id="SVGID_48_">
				<use xlink:href="#SVGID_47_"  style="overflow:visible;"/>
			</clipPath>
		</g>
	</g>
</g>
<text transform="matrix(1 0 0 1 32.1489 946.2659)"><tspan x="0" y="0" class="st31 st32">$T</tspan><tspan x="79.1" y="0" class="st33 st32">, </tspan><tspan x="113.4" y="0" class="st31 st32">K$</tspan></text>
<text transform="matrix(1 0 0 1 683 384)" class="st34 st35"></text>
<text transform="matrix(1 0 0 1 847.046 1782.8506)" class="st31 st32">$S, \frac{\text{кДж}}{\text{кг} \times \text{K}}$</text>
<text transform="matrix(1 0 0 1 986.0214 653.3192)" class="st31 st36">$g$</text>
<text transform="matrix(1 0 0 1 1104.4893 551.1914)" class="st31 st36">$h$</text>
<text transform="matrix(1 0 0 1 1263.8086 447.0215)" class="st31 st36">$c$</text>
<text transform="matrix(1 0 0 1 1941.9365 447.0215)" class="st31 st36">$k$</text>
<text transform="matrix(1 0 0 1 1964.4043 669.6597)" class="st31 st36">$a$</text>
<text transform="matrix(1 0 0 1 2229.9365 679.8726)" class="st31 st36">$e$</text>
<text transform="matrix(1 0 0 1 2403.5527 453.1489)" class="st31 st36">$k’$</text>
<text transform="matrix(1 0 0 1 2393.3408 720.7236)" class="st31 st36">$f$</text>
</svg>
